<?xml version="1.0" standalone="no"?>
<!DOCTYPE svg PUBLIC "-//W3C//DTD SVG 20010904//EN"
 "http://www.w3.org/TR/2001/REC-SVG-20010904/DTD/svg10.dtd">
<svg version="1.0" xmlns="http://www.w3.org/2000/svg"
 width="200.000000pt" height="200.000000pt" viewBox="0 0 200.000000 200.000000"
 preserveAspectRatio="xMidYMid meet">
<metadata>
Created by potrace 1.11, written by Peter Selinger 2001-2013
</metadata>
<g transform="translate(0.000000,200.000000) scale(0.100000,-0.100000)"
fill="#000000" stroke="none">
<path d="M465 1609 c-18 -5 -38 -21 -49 -39 -17 -29 -18 -66 -18 -563 0 -345
4 -541 11 -559 22 -58 21 -58 590 -58 372 0 527 3 545 12 60 27 58 11 58 599
0 503 -1 540 -18 568 -12 21 -30 34 -54 40 -44 11 -1024 11 -1065 0z m1015
-606 l0 -493 -480 0 -480 0 0 28 c-1 33 -1 837 0 908 l0 51 480 -1 480 0 0
-493z"/>
<path d="M650 1322 c-23 -7 -40 -33 -40 -62 0 -51 18 -54 400 -54 334 1 351 1
365 20 18 24 19 55 1 80 -14 18 -30 19 -363 20 -191 0 -355 -1 -363 -4z"/>
<path d="M642 1056 c-35 -19 -42 -58 -18 -92 13 -17 28 -19 121 -20 86 -1 110
2 127 15 28 23 27 71 -2 90 -25 17 -200 22 -228 7z"/>
<path d="M1219 960 c-50 -49 -92 -90 -94 -90 -1 0 -15 11 -31 25 -40 35 -75
33 -98 -5 -17 -30 -17 -32 0 -58 34 -53 106 -112 136 -112 9 0 71 54 138 121
97 98 120 126 120 149 0 31 -30 60 -62 60 -9 0 -58 -40 -109 -90z"/>
<path d="M650 793 c-41 -14 -52 -69 -20 -98 19 -17 90 -22 213 -16 47 3 67 72
29 103 -15 13 -190 21 -222 11z"/>
</g>
</svg>
